<svg width="128" height="128" viewBox="0 0 128 128" fill="none" xmlns="http://www.w3.org/2000/svg">
<path d="M46.6871 59.0703L61.7105 34H74.2759C72.7113 34.7608 71.2352 35.6587 69.8521 36.6963L69.8374 36.707L69.8238 36.7178C67.3779 38.5996 65.3859 40.8731 63.8706 43.5254L63.858 43.5488L63.8443 43.5732C62.3269 46.3449 61.5855 49.3932 61.5855 52.6572C61.5855 55.4345 62.018 58.031 62.94 60.4023L62.9673 60.4688C63.9616 62.8556 65.4486 64.9587 67.3873 66.7686C68.1088 67.4421 68.8894 68.0711 69.7251 68.6582L69.5787 68.8242L59.4029 80.2236V79.6855C59.4029 74.5428 59.5122 69.914 59.732 65.7998C59.7709 65.2162 59.8143 64.6332 59.8599 64.0508L49.1001 81.4004H43.6607L33.2076 64.2422C33.2313 64.6175 33.2555 64.9938 33.2759 65.3711C33.5506 69.3711 33.688 74.1428 33.688 79.6855V94H16.5455V34H31.8755L46.6871 59.0703ZM59.4029 84.4395C61.4975 86.9111 63.851 89.08 66.4624 90.9375L66.4751 90.9473L66.4878 90.9561C68.1824 92.1352 70.0191 93.1472 71.9898 94H59.4029V84.4395ZM63.0708 84.0391V84.04C62.9399 83.9023 62.8102 83.7632 62.6812 83.623C62.636 83.5739 62.5914 83.5241 62.5464 83.4746C62.7196 83.6648 62.8942 83.8531 63.0708 84.0391ZM65.5972 58.9424L65.7359 59.3154C65.6401 59.069 65.5502 58.8186 65.4664 58.5645V58.5635C65.5083 58.6908 65.5522 58.817 65.5972 58.9424ZM64.6412 54.2441C64.6358 54.1692 64.6301 54.094 64.6255 54.0186C64.6165 53.8701 64.6091 53.7207 64.6031 53.5703H64.604C64.6131 53.7971 64.6254 54.0217 64.6412 54.2441ZM64.6978 54.8965C64.6755 54.6812 64.6569 54.4637 64.6412 54.2441C64.6567 54.4637 64.6755 54.6812 64.6978 54.8965Z" fill="#502F4C"/>
<path d="M88.4162 94C84.0884 94 80.2536 93.5342 76.9119 92.6027C73.625 91.6164 70.7215 90.2466 68.2015 88.4932C65.7363 86.7397 63.5176 84.6849 61.5455 82.3288L71.8171 70.8219C74.5563 74.3288 77.4049 76.6575 80.3632 77.8082C83.3762 78.9041 86.1975 79.4521 88.8271 79.4521C89.8679 79.4521 90.7992 79.3699 91.621 79.2055C92.4427 78.9863 93.0727 78.6575 93.511 78.2192C93.9492 77.7808 94.1683 77.1781 94.1683 76.411C94.1683 75.6986 93.9218 75.0959 93.4288 74.6027C92.9905 74.1096 92.3879 73.6986 91.621 73.3699C90.854 72.9863 90.0049 72.6849 89.0736 72.4658C88.1971 72.1918 87.3205 71.9726 86.444 71.8082C85.6223 71.6438 84.8827 71.4795 84.2253 71.3151C80.9384 70.5479 78.0623 69.6164 75.5971 68.5205C73.1319 67.4247 71.0776 66.1096 69.4341 64.5753C67.7906 63.0411 66.558 61.2877 65.7363 59.3151C64.9694 57.3425 64.5859 55.1233 64.5859 52.6575C64.5859 49.863 65.2159 47.3151 66.4759 45.0137C67.7906 42.7123 69.5163 40.7397 71.6528 39.0959C73.8441 37.4521 76.3093 36.1918 79.0484 35.3151C81.8423 34.4384 84.7184 34 87.6766 34C92.0044 34 95.6201 34.411 98.5235 35.2329C101.427 36 103.865 37.1233 105.837 38.6027C107.809 40.0822 109.507 41.8082 110.932 43.7808L100.578 53.726C99.3727 52.5753 98.1127 51.6438 96.7979 50.9315C95.4831 50.1644 94.1136 49.6164 92.6892 49.2877C91.3197 48.9041 89.9501 48.7123 88.5805 48.7123C87.3206 48.7123 86.2523 48.8219 85.3758 49.0411C84.4993 49.2055 83.8145 49.5068 83.3214 49.9452C82.8284 50.3288 82.5819 50.8767 82.5819 51.589C82.5819 52.3014 82.8832 52.9041 83.4858 53.3973C84.1432 53.8356 84.9375 54.2192 85.8688 54.5479C86.8549 54.8767 87.8136 55.1507 88.7449 55.3699C89.731 55.5342 90.5527 55.6712 91.2101 55.7808C94.2231 56.3288 96.9896 57.0959 99.5096 58.0822C102.03 59.0137 104.221 60.2192 106.084 61.6986C108.001 63.1233 109.453 64.9315 110.439 67.1233C111.48 69.2603 112 71.8082 112 74.7671C112 78.9863 110.932 82.5205 108.795 85.3699C106.713 88.2192 103.892 90.3836 100.331 91.863C96.7705 93.2877 92.7988 94 88.4162 94Z" fill="#502F4C"/>
</svg>
